PathFileType	4	(X/Y/Z)	./resultDataOpenSim/trcMotMarkerGrf/sub06/qtm-02-04.trc
DataRate	CameraRate	NumFrames	NumMarkers	Units	OrigDataRate	OrigDataStartFrame	OrigNumFrames
250.000000	250.000000	13	24	m	250.000000	431	492
Frame#	Time	L.Toe.Tip			R.Toe.Tip			L.Ankle.Lat			R.Ankle.Lat			L.Ankle.Med			R.Ankle.Med			L.Heel			R.Heel			L.Knee.Lat			R.Knee.Lat			L.Knee.Med			R.Knee.Med			L.Thigh.Upper			R.Thigh.Upper			L.ASIS			R.ASIS			V.Sacral			L.Acromium			R.Acromium			C7			L.Elbow			R.Elbow			L.Wrist.Lat			R.Wrist.Lat
		X1	Y1	Z1	X2	Y2	Z2	X3	Y3	Z3	X4	Y4	Z4	X5	Y5	Z5	X6	Y6	Z6	X7	Y7	Z7	X8	Y8	Z8	X9	Y9	Z9	X10	Y10	Z10	X11	Y11	Z11	X12	Y12	Z12	X13	Y13	Z13	X14	Y14	Z14	X15	Y15	Z15	X16	Y16	Z16	X17	Y17	Z17	X18	Y18	Z18	X19	Y19	Z19	X20	Y20	Z20	X21	Y21	Z21	X22	Y22	Z22	X23	Y23	Z23	X24	Y24	Z24

431	1.72	1.6889483	0.033620181	0.012418943	1.0948896	0.081996953	0.15436259	1.5634986	0.06622028	-0.015536703	1.1001503	0.22037742	0.19044872	1.5615051	0.081272663	0.070719148	1.1424442	0.20910098	0.11144715	1.4876692	0.040168974	0.025102302	1.0823464	0.26772341	0.12656504	1.6032633	0.43938392	-0.037603187	1.4378902	0.40025835	0.23332849	1.5743382	0.43593461	0.079508968	1.4425156	0.37832766	0.099344864	1.4770083	0.81458511	-0.11247865	1.4120592	0.76266472	0.21925053	1.532617	0.85495698	-0.055112476	1.5016989	0.82878309	0.18704112	1.3255701	0.90749055	0.055938156	1.4331662	1.3139856	-0.13271557	1.4259264	1.3180698	0.23101241	1.3494391	1.3523185	0.045768662	1.357347	1.0082925	-0.17877003	1.3763538	0.99987188	0.31356684	1.4593672	0.78978919	-0.21954334	1.6015765	0.88951009	0.30751917
432	1.724	1.6888635	0.033639614	0.012364823	1.1105665	0.083252718	0.15528767	1.5634034	0.066162258	-0.015430416	1.1135215	0.22171011	0.19084087	1.5618197	0.08147832	0.07064652	1.1558282	0.2108176	0.11193914	1.4875371	0.040185104	0.024936621	1.0944674	0.26855569	0.12696548	1.6049686	0.43911382	-0.037660973	1.4501877	0.40234496	0.23394687	1.5754144	0.4359169	0.079423739	1.4544355	0.38070822	0.099691269	1.482092	0.81552932	-0.11282147	1.4185419	0.76398766	0.21907235	1.5380887	0.85603693	-0.055633447	1.5075862	0.83081807	0.18696381	1.3312422	0.90920112	0.055611986	1.439365	1.3156541	-0.13277823	1.431196	1.3197933	0.2309595	1.3553019	1.3538908	0.045445276	1.3657297	1.0090326	-0.17912017	1.3802135	1.0015139	0.31216167	1.4712078	0.7919071	-0.2189915	1.6034865	0.88689058	0.30796326
433	1.728	1.6887971	0.033654687	0.012324548	1.1266417	0.084347735	0.15595737	1.5633118	0.066144539	-0.015400889	1.1270432	0.22282866	0.1912029	1.5622766	0.081729379	0.070570921	1.1692932	0.21236939	0.11239941	1.4874352	0.040177532	0.024906444	1.106559	0.26904151	0.12738147	1.6066872	0.43890558	-0.03763736	1.4624597	0.40462738	0.23450921	1.5764391	0.43603281	0.079379989	1.4665178	0.38309827	0.10011125	1.4870616	0.81643469	-0.11317478	1.4248696	0.76541898	0.21891276	1.5435009	0.85711634	-0.056148837	1.5134545	0.83288156	0.18686433	1.3369208	0.91093256	0.055216373	1.4455111	1.3173553	-0.13283053	1.4364601	1.3215251	0.2309148	1.361149	1.3554832	0.04514339	1.3742032	1.0097931	-0.17927329	1.3841497	1.0031726	0.31082892	1.4830635	0.79413785	-0.21840457	1.6053061	0.88436628	0.30841451
434	1.732	1.6887459	0.033662756	0.012293072	1.1430386	0.085218921	0.15665558	1.5632316	0.066154225	-0.015422576	1.1405786	0.22370766	0.1915545	1.5626993	0.081969097	0.070508204	1.1828325	0.21375709	0.11282481	1.4873766	0.040170806	0.025010695	1.1186971	0.26921322	0.12778505	1.6084126	0.43874916	-0.037548589	1.4747555	0.40709325	0.23500346	1.5774787	0.43625027	0.079384076	1.4789103	0.38550489	0.10053004	1.4919978	0.81729239	-0.11355348	1.4310232	0.76696192	0.21877201	1.5488621	0.85819717	-0.05665583	1.5193258	0.83496208	0.18673911	1.3425692	0.91266985	0.054805576	1.4516176	1.3190941	-0.13287262	1.4417436	1.3232556	0.23087443	1.3669962	1.3570924	0.044882798	1.3827107	1.0105842	-0.17934188	1.3883625	1.0048593	0.30958744	1.4949395	0.79647746	-0.21778458	1.6070314	0.8819367	0.30887048
435	1.736	1.6887037	0.033665103	0.0122666	1.1596817	0.085857159	0.15753006	1.5631636	0.066176052	-0.015461418	1.154008	0.22431531	0.19191643	1.5629715	0.082156903	0.070467577	1.1964506	0.21497648	0.11321601	1.4873467	0.040189693	0.025143351	1.1309337	0.26909466	0.12816384	1.6101247	0.4386287	-0.037409776	1.4871017	0.40971131	0.23540977	1.5785259	0.43652187	0.079437039	1.4915493	0.38793856	0.10088868	1.4969002	0.81810254	-0.11394148	1.4369871	0.76861952	0.21864733	1.5542384	0.85928245	-0.057175238	1.5252144	0.83704666	0.18658493	1.3481968	0.91439685	0.054431577	1.4576904	1.3208769	-0.13290715	1.4470493	1.3249787	0.23083663	1.372849	1.3587039	0.044682358	1.3912067	1.011411	-0.17940555	1.3928818	1.006586	0.30844021	1.5068519	0.79892019	-0.21713974	1.6086481	0.8796012	0.30933157
436	1.74	1.6886655	0.033666547	0.012242413	1.1765223	0.086297498	0.15857504	1.563096	0.066214164	-0.015526342	1.167379	0.22466282	0.19229178	1.563115	0.082298423	0.070444019	1.2101544	0.21601274	0.11357485	1.4873189	0.040235572	0.025222115	1.1433036	0.2686962	0.12850578	1.6117957	0.43852556	-0.037238631	1.4994458	0.41245432	0.23572333	1.57948	0.4367929	0.079513035	1.5041698	0.39041877	0.10117769	1.5017366	0.81886981	-0.11430757	1.4427796	0.77039312	0.21853095	1.559706	0.8603742	-0.057735405	1.5311242	0.8391241	0.18639909	1.3539082	0.91609743	0.054083465	1.4637243	1.322697	-0.13293467	1.4523739	1.3266881	0.23079992	1.3787029	1.3603127	0.044537747	1.3996744	1.012274	-0.17948201	1.3975994	1.0083558	0.30736735	1.5188209	0.80146333	-0.21647642	1.6101457	0.87735915	0.30980271
437	1.744	1.6886289	0.033672381	0.012219423	1.1935461	0.086579048	0.15973559	1.5630161	0.066284844	-0.015647036	1.1809004	0.22481055	0.19266907	1.5632034	0.082421585	0.070429134	1.2239522	0.21684226	0.11390946	1.4872706	0.040288418	0.02522221	1.1558374	0.26802783	0.12878808	1.6134101	0.4384285	-0.037054064	1.5116809	0.41531324	0.23596309	1.5802086	0.43701473	0.07957027	1.5165655	0.3929577	0.10141343	1.5064889	0.81959365	-0.11461525	1.4484962	0.77228004	0.21841391	1.565247	0.86147174	-0.058332221	1.5370498	0.84118666	0.18618073	1.3598124	0.91775635	0.053721243	1.4697085	1.3245313	-0.13294935	1.4577285	1.3283763	0.23076026	1.3845501	1.3619242	0.044427531	1.4081227	1.0131807	-0.1795607	1.4023413	1.010149	0.30633149	1.5308491	0.80411012	-0.215789	1.6115281	0.87521136	0.31028854
438	1.748	1.6885946	0.033685008	0.012198115	1.210754	0.086724342	0.16097293	1.5629306	0.066392926	-0.015806659	1.1947346	0.22480095	0.19303992	1.563282	0.082548607	0.070418803	1.2378551	0.2174328	0.11423675	1.4871951	0.040325395	0.025163097	1.168553	0.26709522	0.12900135	1.6149641	0.43833849	-0.036871757	1.523747	0.41828416	0.23615035	1.5806989	0.43717105	0.079587194	1.5287774	0.39554632	0.10159176	1.5111839	0.82026794	-0.11483762	1.4543213	0.77426967	0.21830139	1.5707536	0.86257232	-0.058929337	1.5429874	0.84322996	0.18593	1.3659041	0.91935925	0.053338004	1.4756397	1.3263614	-0.13294625	1.4631316	1.3300363	0.23071067	1.3903858	1.3635362	0.044334248	1.4165672	1.0141402	-0.17963443	1.406951	1.0119394	0.30530024	1.5429181	0.80686056	-0.21506101	1.6128105	0.87316273	0.31078816
439	1.752	1.6885672	0.033702554	0.012178955	1.2281423	0.086740845	0.16226896	1.5628652	0.066520934	-0.015929489	1.2089012	0.22460685	0.1934114	1.5633637	0.082689264	0.070412095	1.2518811	0.21774675	0.11458241	1.4871169	0.040343607	0.025132309	1.1814313	0.26588177	0.12918961	1.6164531	0.43826126	-0.03670072	1.535665	0.42134819	0.23628777	1.5811723	0.43729284	0.079588493	1.5410278	0.39817017	0.10169193	1.5158844	0.82089937	-0.1149934	1.4604656	0.7763353	0.21823032	1.5761545	0.86367376	-0.059496748	1.5489401	0.84525098	0.18564627	1.3720514	0.92091509	0.052972909	1.481528	1.3281918	-0.13292921	1.4685973	1.3316635	0.23064829	1.396209	1.3651343	0.044251903	1.4250131	1.015144	-0.17970554	1.4113411	1.0137321	0.30425914	1.5550295	0.80969833	-0.21427674	1.6140078	0.87121858	0.31129915
440	1.756	1.6885521	0.033719269	0.012161303	1.2457075	0.0866348	0.163615	1.5628374	0.066646715	-0.01596148	1.2234289	0.22415379	0.19380981	1.5634489	0.082844446	0.070408862	1.2660677	0.2177525	0.11499592	1.4870772	0.040369512	0.025239538	1.1944463	0.26435829	0.12939704	1.6178681	0.43819773	-0.036546514	1.5474738	0.42447511	0.23637151	1.5819671	0.43742628	0.07962869	1.5534538	0.40083751	0.10171896	1.5205889	0.8215209	-0.11516026	1.4670675	0.77843335	0.21826308	1.5814714	0.86477598	-0.060030204	1.5549102	0.84724534	0.18532828	1.3780944	0.92247091	0.052679171	1.4873897	1.3300384	-0.13290523	1.4741401	1.333257	0.23058703	1.4020202	1.3667039	0.04418153	1.433456	1.016164	-0.17978822	1.4154435	1.0155582	0.30320567	1.5672112	0.81259895	-0.2134306	1.6151296	0.86937767	0.31182225
441	1.76	1.6885493	0.033728517	0.012144525	1.2634737	0.086428409	0.1650061	1.5628398	0.066762302	-0.015922271	1.2384299	0.22337651	0.19427179	1.5635371	0.083009286	0.070408323	1.2804747	0.21743735	0.11556048	1.4870864	0.040437659	0.025484327	1.2076486	0.26251819	0.12954243	1.6191979	0.4381446	-0.036416699	1.5591895	0.42764134	0.23641459	1.5832331	0.43758045	0.079742743	1.5659214	0.40358499	0.1017075	1.5251981	0.82216274	-0.1154029	1.4741871	0.78052714	0.21845461	1.5867563	0.86587957	-0.060540185	1.5608868	0.84920711	0.1849756	1.3839737	0.92405638	0.052477525	1.4932383	1.3319006	-0.13287367	1.4797747	1.3348205	0.23055558	1.4078205	1.3682335	0.044128037	1.4418891	1.0171752	-0.1799013	1.4191974	1.0174306	0.30214782	1.5794129	0.81555752	-0.21253492	1.6161805	0.86763259	0.31235805
442	1.764	1.688551	0.033727458	0.012128883	1.2814982	0.086161226	0.16643918	1.5628526	0.066868458	-0.015860843	1.253868	0.22227135	0.19480543	1.5636347	0.083176129	0.070407382	1.295138	0.21682088	0.11632997	1.4871093	0.040560054	0.025750176	1.2211232	0.26039224	0.12952162	1.6204404	0.43810214	-0.036316694	1.5708161	0.43083226	0.23644322	1.5847869	0.43771948	0.079915723	1.5782138	0.40645683	0.10168641	1.5296954	0.822818	-0.11568794	1.4818566	0.78261411	0.21882007	1.5920355	0.86698185	-0.06103775	1.5668492	0.85113195	0.18459084	1.3897712	0.92562422	0.052337248	1.4990799	1.3337507	-0.13282634	1.4854965	1.3363527	0.23056694	1.413616	1.3697101	0.044098362	1.4503059	1.0181715	-0.18005001	1.422683	1.0193265	0.30110879	1.5914452	0.81859867	-0.2116172	1.6171594	0.86597664	0.31290626
443	1.768	1.6885479	0.033718778	0.012114916	1.2998048	0.085859339	0.16792335	1.5628611	0.066964263	-0.015803984	1.2693797	0.22090606	0.19535531	1.563764	0.083341274	0.070399999	1.3099784	0.21596706	0.1171866	1.4871107	0.040720284	0.025949916	1.2347784	0.25801143	0.12954081	1.6216138	0.43807494	-0.036243297	1.5823495	0.43403349	0.23647148	1.5863218	0.4378041	0.080103278	1.5903323	0.4094817	0.10166524	1.5342272	0.82346475	-0.11592608	1.4899023	0.78471218	0.21930432	1.5973097	0.86807676	-0.061526483	1.5727895	0.85301942	0.18418217	1.3955876	0.92709768	0.052218135	1.5049139	1.3355545	-0.13275824	1.4912661	1.3378352	0.23059482	1.4194142	1.3711255	0.04409574	1.4586987	1.0191572	-0.1802246	1.4261624	1.0212072	0.30011853	1.6031598	0.82174655	-0.21069272	1.6180631	0.86440756	0.31347003
